<?xml version="1.0" standalone="no"?>
<!DOCTYPE svg PUBLIC "-//W3C//DTD SVG 20010904//EN"
 "http://www.w3.org/TR/2001/REC-SVG-20010904/DTD/svg10.dtd">
<svg version="1.0" xmlns="http://www.w3.org/2000/svg"
 width="48.000000pt" height="45.000000pt" viewBox="0 0 48.000000 45.000000"
 preserveAspectRatio="xMidYMid meet">

<g transform="translate(0.000000,45.000000) scale(0.100000,-0.100000)"
fill="#000000" stroke="none">
<path d="M0 225 l0 -225 240 0 240 0 0 225 0 225 -240 0 -240 0 0 -225z m388
120 c32 -37 30 -94 -4 -129 -15 -14 -35 -26 -46 -26 -10 0 -21 -8 -24 -17 -17
-56 -37 -85 -68 -99 -74 -36 -156 16 -156 98 0 52 51 108 99 108 23 0 31 5 31
18 0 20 27 55 55 71 30 17 87 5 113 -24z"/>
<path d="M281 316 c-22 -26 -9 -70 23 -81 24 -8 31 -6 47 14 20 24 18 59 -5
73 -18 12 -53 9 -65 -6z"/>
<path d="M172 230 c-29 -12 -44 -52 -32 -84 11 -29 30 -36 88 -34 l43 2 -6 41
c-4 24 -16 49 -31 63 -28 24 -29 25 -62 12z m52 -36 c20 -19 20 -29 0 -48 -19
-19 -36 -20 -52 -4 -15 15 -15 41 0 56 16 16 33 15 52 -4z"/>
</g>
</svg>
